<svg width="111" height="34" viewBox="0 0 111 34" fill="none" xmlns="http://www.w3.org/2000/svg">
<g clip-path="url(#clip0)">
<path d="M107.051 33.5H3.88829C1.74476 33.5 0 31.7444 0 29.5953V4.39895C0 2.249 1.74476 0.5 3.88829 0.5H107.051C109.194 0.5 111 2.249 111 4.39895V29.5953C111 31.7444 109.194 33.5 107.051 33.5Z" fill="#A6A6A6"/>
<path d="M110.204 29.5961C110.204 31.3418 108.795 32.7559 107.052 32.7559H3.88831C2.14602 32.7559 0.731796 31.3418 0.731796 29.5961V4.39813C0.731796 2.65325 2.14602 1.23425 3.88831 1.23425H107.051C108.795 1.23425 110.203 2.65325 110.203 4.39813L110.204 29.5961Z" fill="black"/>
<path d="M24.7719 16.8218C24.7481 14.1628 26.9417 12.8692 27.0421 12.809C25.7997 10.9915 23.874 10.7432 23.1973 10.7234C21.58 10.5526 20.0112 11.6944 19.1874 11.6944C18.3471 11.6944 17.0784 10.7399 15.711 10.768C13.9515 10.7952 12.3054 11.8174 11.4026 13.4047C9.53941 16.6411 10.929 21.3973 12.714 24.0133C13.6069 25.2946 14.6503 26.7251 16.0161 26.6748C17.3522 26.6195 17.8513 25.8201 19.4636 25.8201C21.0612 25.8201 21.5299 26.6748 22.9227 26.6426C24.3567 26.6195 25.2595 25.3556 26.1212 24.0628C27.1531 22.5943 27.5675 21.1481 27.5839 21.0739C27.5502 21.0623 24.799 20.0088 24.7719 16.8218Z" fill="white"/>
<path d="M22.1408 9.00245C22.8594 8.10073 23.3511 6.87395 23.2146 5.62903C22.1745 5.67523 20.8738 6.3509 20.1247 7.23283C19.462 8.00998 18.87 9.28378 19.0229 10.4817C20.1913 10.5691 21.3909 9.89015 22.1408 9.00245Z" fill="white"/>
<path d="M44.1081 26.4908H42.2409L41.218 23.2659H37.6627L36.6884 26.4908H34.8705L38.3929 15.5117H40.5685L44.1081 26.4908ZM40.9097 21.9129L39.9847 19.046C39.8868 18.7531 39.7035 18.0634 39.433 16.9777H39.4001C39.2924 17.4447 39.1189 18.1344 38.8804 19.046L37.9719 21.9129H40.9097Z" fill="white"/>
<path d="M53.1665 22.4351C53.1665 23.7815 52.8039 24.8457 52.0787 25.627C51.4292 26.3225 50.6226 26.6698 49.6598 26.6698C48.6205 26.6698 47.8739 26.2953 47.4192 25.5462H47.3863V29.7165H45.6333V21.1803C45.6333 20.3338 45.6111 19.4651 45.5684 18.5741H47.1101L47.2079 19.8289H47.2408C47.8254 18.8835 48.7126 18.4116 49.9031 18.4116C50.8339 18.4116 51.6109 18.7803 52.2325 19.5187C52.8557 20.2579 53.1665 21.2298 53.1665 22.4351ZM51.3807 22.4994C51.3807 21.7289 51.208 21.0937 50.861 20.5937C50.482 20.0723 49.973 19.8116 49.335 19.8116C48.9025 19.8116 48.5095 19.9568 48.1584 20.2431C47.8065 20.5318 47.5763 20.9089 47.4685 21.3758C47.4143 21.5936 47.3871 21.7718 47.3871 21.912V23.232C47.3871 23.8079 47.5631 24.2938 47.915 24.6906C48.2669 25.0875 48.7241 25.2855 49.2865 25.2855C49.9467 25.2855 50.4606 25.0297 50.8281 24.5199C51.1965 24.0092 51.3807 23.336 51.3807 22.4994Z" fill="white"/>
<path d="M62.2414 22.4351C62.2414 23.7815 61.8788 24.8457 61.1528 25.627C60.504 26.3225 59.6974 26.6698 58.7346 26.6698C57.6953 26.6698 56.9487 26.2953 56.4949 25.5462H56.462V29.7165H54.709V21.1803C54.709 20.3338 54.6868 19.4651 54.6441 18.5741H56.1857L56.2836 19.8289H56.3165C56.9002 18.8835 57.7874 18.4116 58.9788 18.4116C59.9088 18.4116 60.6858 18.7803 61.309 19.5187C61.9298 20.2579 62.2414 21.2298 62.2414 22.4351ZM60.4555 22.4994C60.4555 21.7289 60.282 21.0937 59.9351 20.5937C59.556 20.0723 59.0487 19.8116 58.4098 19.8116C57.9765 19.8116 57.5843 19.9568 57.2324 20.2431C56.8805 20.5318 56.6511 20.9089 56.5434 21.3758C56.4899 21.5936 56.462 21.7718 56.462 21.912V23.232C56.462 23.8079 56.6379 24.2938 56.9882 24.6906C57.3401 25.0866 57.7973 25.2855 58.3613 25.2855C59.0216 25.2855 59.5355 25.0297 59.903 24.5199C60.2714 24.0092 60.4555 23.336 60.4555 22.4994Z" fill="white"/>
<path d="M72.3876 23.4119C72.3876 24.3458 72.0645 25.1056 71.4158 25.6922C70.7029 26.3332 69.7105 26.6533 68.4352 26.6533C67.2578 26.6533 66.3139 26.4256 65.5993 25.9694L66.0055 24.5034C66.7751 24.9703 67.6196 25.2046 68.5396 25.2046C69.1999 25.2046 69.7138 25.0545 70.0829 24.7558C70.4505 24.4572 70.6338 24.0562 70.6338 23.5563C70.6338 23.1108 70.4825 22.7354 70.1791 22.431C69.8774 22.1266 69.3734 21.8436 68.6695 21.5821C66.7538 20.8651 65.7967 19.8149 65.7967 18.4339C65.7967 17.5313 66.1322 16.7913 66.8039 16.2154C67.4732 15.6388 68.3661 15.3508 69.4827 15.3508C70.4784 15.3508 71.3056 15.5249 71.9658 15.8722L71.5276 17.3061C70.9109 16.9695 70.2137 16.8012 69.4334 16.8012C68.8167 16.8012 68.3349 16.9538 67.9896 17.2574C67.6977 17.5288 67.5513 17.8597 67.5513 18.2515C67.5513 18.6855 67.7182 19.0444 68.0537 19.3265C68.3456 19.5872 68.8759 19.8694 69.6455 20.1738C70.587 20.5541 71.2784 20.9988 71.7233 21.5086C72.1664 22.0168 72.3876 22.6529 72.3876 23.4119Z" fill="white"/>
<path d="M78.1835 19.8941H76.2513V23.7378C76.2513 24.7154 76.5917 25.2038 77.2741 25.2038C77.5874 25.2038 77.8472 25.1766 78.0527 25.1221L78.1013 26.4578C77.7559 26.5873 77.3012 26.6525 76.738 26.6525C76.0457 26.6525 75.5047 26.4405 75.1141 26.0173C74.7252 25.5932 74.5295 24.8821 74.5295 23.883V19.8925H73.3784V18.5725H74.5295V17.1229L76.2513 16.6015V18.5725H78.1835V19.8941Z" fill="white"/>
<path d="M86.9015 22.4673C86.9015 23.6842 86.5545 24.6832 85.8622 25.4645C85.1362 26.2689 84.1725 26.6698 82.9713 26.6698C81.8136 26.6698 80.8919 26.2846 80.2045 25.514C79.5171 24.7435 79.1734 23.7708 79.1734 22.5984C79.1734 21.3717 79.527 20.3668 80.2365 19.5856C80.9445 18.8035 81.8999 18.4124 83.1012 18.4124C84.2589 18.4124 85.1904 18.7977 85.8934 19.569C86.566 20.3173 86.9015 21.2834 86.9015 22.4673ZM85.0827 22.5242C85.0827 21.7941 84.9273 21.1679 84.6124 20.6457C84.2449 20.0137 83.7195 19.6986 83.0387 19.6986C82.334 19.6986 81.7988 20.0146 81.4312 20.6457C81.1163 21.1687 80.9609 21.8048 80.9609 22.5572C80.9609 23.2873 81.1163 23.9135 81.4312 24.4349C81.8103 25.0669 82.3398 25.382 83.0231 25.382C83.6924 25.382 84.2178 25.0603 84.5968 24.4184C84.9199 23.8863 85.0827 23.2535 85.0827 22.5242Z" fill="white"/>
<path d="M92.5995 20.121C92.426 20.0888 92.241 20.0723 92.047 20.0723C91.4303 20.0723 90.9534 20.3058 90.618 20.7735C90.3261 21.186 90.1797 21.7074 90.1797 22.3369V26.4908H88.4276L88.444 21.0673C88.444 20.1548 88.4218 19.324 88.3782 18.5749H89.9051L89.9692 20.0896H90.0177C90.2027 19.5691 90.4946 19.15 90.8942 18.8356C91.2848 18.5527 91.7066 18.4116 92.1613 18.4116C92.3232 18.4116 92.4696 18.4231 92.5995 18.4437V20.121Z" fill="white"/>
<path d="M100.439 22.1579C100.439 22.4731 100.419 22.7387 100.375 22.9557H95.1163C95.1369 23.7378 95.3909 24.3359 95.8793 24.7484C96.3225 25.1172 96.8956 25.302 97.5994 25.302C98.3781 25.302 99.0885 25.1774 99.7273 24.9274L100.002 26.1484C99.2554 26.4751 98.374 26.6377 97.3569 26.6377C96.1334 26.6377 95.1731 26.2763 94.4742 25.5544C93.7769 24.8326 93.4275 23.8632 93.4275 22.6471C93.4275 21.4534 93.7523 20.4592 94.4026 19.6664C95.0834 18.82 96.0035 18.3967 97.1612 18.3967C98.2983 18.3967 99.1592 18.82 99.7438 19.6664C100.207 20.3388 100.439 21.1704 100.439 22.1579ZM98.7678 21.7017C98.7793 21.1803 98.665 20.7298 98.4274 20.3495C98.124 19.8603 97.6578 19.6161 97.0305 19.6161C96.4574 19.6161 95.9912 19.8545 95.6352 20.333C95.3433 20.7133 95.1698 21.1696 95.1163 21.7009H98.7678V21.7017Z" fill="white"/>
<path d="M40.33 8.75742C40.33 9.72845 40.0398 10.4594 39.4601 10.9503C38.9232 11.4032 38.1602 11.6301 37.1718 11.6301C36.6818 11.6301 36.2625 11.6086 35.9114 11.5657V6.26015C36.3694 6.1859 36.8627 6.14795 37.3955 6.14795C38.3369 6.14795 39.0465 6.35337 39.525 6.76422C40.0611 7.2287 40.33 7.89282 40.33 8.75742ZM39.4214 8.78135C39.4214 8.15187 39.2554 7.66925 38.9232 7.33265C38.591 6.99687 38.1059 6.82857 37.467 6.82857C37.1957 6.82857 36.9646 6.84672 36.7731 6.88467V10.9181C36.8791 10.9346 37.0732 10.942 37.3552 10.942C38.0146 10.942 38.5236 10.758 38.8821 10.3901C39.2406 10.0221 39.4214 9.4859 39.4214 8.78135Z" fill="white"/>
<path d="M45.1474 9.60553C45.1474 10.2037 44.9772 10.6937 44.6368 11.0782C44.2799 11.4733 43.8072 11.6705 43.2168 11.6705C42.6478 11.6705 42.1948 11.4816 41.8569 11.1021C41.5198 10.7234 41.3512 10.2457 41.3512 9.66988C41.3512 9.06763 41.5247 8.57346 41.8733 8.18983C42.2219 7.80621 42.6906 7.61398 43.281 7.61398C43.8499 7.61398 44.3071 7.80291 44.6532 8.18158C44.9821 8.54953 45.1474 9.02473 45.1474 9.60553ZM44.2536 9.63358C44.2536 9.27471 44.1764 8.96698 44.0226 8.71041C43.8417 8.40021 43.5844 8.24511 43.2497 8.24511C42.9036 8.24511 42.6404 8.40021 42.4596 8.71041C42.305 8.96698 42.2285 9.27966 42.2285 9.64926C42.2285 10.0081 42.3058 10.3159 42.4596 10.5724C42.6462 10.8826 42.906 11.0377 43.2415 11.0377C43.5704 11.0377 43.8286 10.8802 44.0144 10.5642C44.1739 10.3027 44.2536 9.99246 44.2536 9.63358Z" fill="white"/>
<path d="M51.6068 7.69318L50.394 11.5822H49.6047L49.1023 9.89345C48.9748 9.47188 48.8712 9.05278 48.7907 8.63698H48.775C48.7002 9.06433 48.5966 9.4826 48.4634 9.89345L47.9298 11.5822H47.1314L45.991 7.69318H46.8765L47.3148 9.542C47.4208 9.97925 47.508 10.3959 47.5779 10.7902H47.5935C47.6576 10.4652 47.7637 10.051 47.9134 9.55025L48.4634 7.694H49.1656L49.6926 9.51065C49.8201 9.95368 49.9237 10.3802 50.0034 10.7911H50.0273C50.0857 10.3909 50.1736 9.9644 50.2904 9.51065L50.7607 7.694H51.6068V7.69318Z" fill="white"/>
<path d="M56.0739 11.5822H55.2122V9.35474C55.2122 8.66834 54.9524 8.32514 54.4311 8.32514C54.1754 8.32514 53.969 8.41919 53.8087 8.60811C53.65 8.79704 53.5694 9.01979 53.5694 9.27471V11.5814H52.7078V8.80446C52.7078 8.46291 52.6971 8.09249 52.6765 7.69154H53.4338L53.4741 8.29956H53.4979C53.5982 8.11064 53.7479 7.95471 53.9444 7.83014C54.1779 7.68494 54.4394 7.61151 54.7255 7.61151C55.0873 7.61151 55.3882 7.72866 55.6275 7.96379C55.9251 8.25171 56.0739 8.68154 56.0739 9.25244V11.5822Z" fill="white"/>
<path d="M58.4501 11.5822H57.5893V5.90871H58.4501V11.5822Z" fill="white"/>
<path d="M63.5232 9.60553C63.5232 10.2037 63.353 10.6937 63.0126 11.0782C62.6558 11.4733 62.1822 11.6705 61.5926 11.6705C61.0228 11.6705 60.5698 11.4816 60.2327 11.1021C59.8956 10.7234 59.727 10.2457 59.727 9.66988C59.727 9.06763 59.9005 8.57346 60.2491 8.18983C60.5978 7.80621 61.0664 7.61398 61.656 7.61398C62.2258 7.61398 62.6821 7.80291 63.0291 8.18158C63.358 8.54953 63.5232 9.02473 63.5232 9.60553ZM62.6286 9.63358C62.6286 9.27471 62.5514 8.96698 62.3976 8.71041C62.2175 8.40021 61.9594 8.24511 61.6255 8.24511C61.2786 8.24511 61.0154 8.40021 60.8354 8.71041C60.6808 8.96698 60.6043 9.27966 60.6043 9.64926C60.6043 10.0081 60.6816 10.3159 60.8354 10.5724C61.022 10.8826 61.2818 11.0377 61.6173 11.0377C61.9462 11.0377 62.2036 10.8802 62.3894 10.5642C62.5497 10.3027 62.6286 9.99246 62.6286 9.63358Z" fill="white"/>
<path d="M67.6936 11.5822H66.9199L66.8557 11.1343H66.8319C66.5671 11.4915 66.1897 11.6705 65.6997 11.6705C65.3338 11.6705 65.0378 11.5525 64.815 11.3182C64.6127 11.1054 64.5116 10.8406 64.5116 10.5262C64.5116 10.051 64.7089 9.68886 65.106 9.43806C65.5023 9.18726 66.0598 9.06433 66.7776 9.07011V8.99751C66.7776 8.48518 66.5096 8.22943 65.9727 8.22943C65.5903 8.22943 65.2532 8.32596 64.9621 8.51736L64.787 7.94976C65.1471 7.72618 65.592 7.61398 66.1165 7.61398C67.1295 7.61398 67.6377 8.15023 67.6377 9.22273V10.6549C67.6377 11.0435 67.6566 11.3529 67.6936 11.5822ZM66.799 10.2457V9.64596C65.8485 9.62946 65.3733 9.89098 65.3733 10.4297C65.3733 10.6327 65.4275 10.7845 65.5385 10.8859C65.6495 10.9874 65.7909 11.0377 65.9595 11.0377C66.1486 11.0377 66.3254 10.9775 66.4865 10.8579C66.6485 10.7374 66.748 10.5848 66.785 10.3975C66.7941 10.3555 66.799 10.3043 66.799 10.2457Z" fill="white"/>
<path d="M72.5899 11.5822H71.8252L71.7849 10.9577H71.7611C71.5169 11.4329 71.1009 11.6705 70.5163 11.6705C70.0492 11.6705 69.6603 11.4865 69.352 11.1186C69.0437 10.7506 68.8899 10.273 68.8899 9.68638C68.8899 9.05691 69.0568 8.54706 69.3923 8.15766C69.7171 7.79466 70.115 7.61316 70.5886 7.61316C71.1091 7.61316 71.4733 7.78888 71.6805 8.14116H71.697V5.90871H72.5595V10.5345C72.5595 10.9132 72.5693 11.2621 72.5899 11.5822ZM71.697 9.94213V9.29368C71.697 9.18148 71.6887 9.09073 71.6731 9.02143C71.6246 8.81353 71.5202 8.63863 71.3615 8.49756C71.2012 8.35648 71.0079 8.28553 70.7851 8.28553C70.4636 8.28553 70.212 8.41341 70.027 8.66998C69.8437 8.92656 69.7508 9.25408 69.7508 9.65421C69.7508 10.0387 69.8387 10.3505 70.0155 10.5906C70.2022 10.8463 70.4538 10.9742 70.7687 10.9742C71.0515 10.9742 71.2776 10.8678 71.4495 10.6541C71.6156 10.4569 71.697 10.2193 71.697 9.94213Z" fill="white"/>
<path d="M79.9595 9.60553C79.9595 10.2037 79.7893 10.6937 79.4489 11.0782C79.092 11.4733 78.6201 11.6705 78.0289 11.6705C77.4607 11.6705 77.0077 11.4816 76.6689 11.1021C76.3318 10.7234 76.1633 10.2457 76.1633 9.66988C76.1633 9.06763 76.3367 8.57346 76.6854 8.18983C77.034 7.80621 77.5027 7.61398 78.0938 7.61398C78.662 7.61398 79.12 7.80291 79.4653 8.18158C79.7942 8.54953 79.9595 9.02473 79.9595 9.60553ZM79.0665 9.63358C79.0665 9.27471 78.9892 8.96698 78.8355 8.71041C78.6538 8.40021 78.3972 8.24511 78.0618 8.24511C77.7164 8.24511 77.4533 8.40021 77.2716 8.71041C77.117 8.96698 77.0406 9.27966 77.0406 9.64926C77.0406 10.0081 77.1179 10.3159 77.2716 10.5724C77.4583 10.8826 77.7181 11.0377 78.0535 11.0377C78.3824 11.0377 78.6414 10.8802 78.8273 10.5642C78.9859 10.3027 79.0665 9.99246 79.0665 9.63358Z" fill="white"/>
<path d="M84.5927 11.5822H83.7318V9.35474C83.7318 8.66834 83.472 8.32514 82.9499 8.32514C82.6942 8.32514 82.4878 8.41919 82.3283 8.60811C82.1688 8.79704 82.089 9.01979 82.089 9.27471V11.5814H81.2265V8.80446C81.2265 8.46291 81.2167 8.09249 81.1961 7.69154H81.9525L81.9928 8.29956H82.0167C82.1178 8.11064 82.2675 7.95471 82.4631 7.83014C82.6975 7.68494 82.9581 7.61151 83.2451 7.61151C83.606 7.61151 83.907 7.72866 84.1462 7.96379C84.4447 8.25171 84.5927 8.68154 84.5927 9.25244V11.5822Z" fill="white"/>
<path d="M90.3918 8.3408H89.443V10.23C89.443 10.7102 89.6115 10.9503 89.9454 10.9503C90.0999 10.9503 90.2282 10.9371 90.3293 10.9098L90.3515 11.5657C90.1813 11.6301 89.9577 11.6622 89.6823 11.6622C89.3419 11.6622 89.0771 11.5583 88.8855 11.3504C88.6931 11.1425 88.5977 10.7927 88.5977 10.3018V8.3408H88.0312V7.69317H88.5977V6.98037L89.4422 6.72462V7.69235H90.391V8.3408H90.3918Z" fill="white"/>
<path d="M94.9535 11.5822H94.091V9.37123C94.091 8.67411 93.8312 8.32513 93.3107 8.32513C92.9111 8.32513 92.6381 8.52726 92.4885 8.93151C92.463 9.01648 92.4482 9.12043 92.4482 9.24253V11.5814H91.5873V5.90871H92.4482V8.25253H92.4646C92.736 7.82601 93.1249 7.61316 93.6289 7.61316C93.9857 7.61316 94.2809 7.73031 94.5152 7.96543C94.8071 8.25831 94.9535 8.69391 94.9535 9.26976V11.5822Z" fill="white"/>
<path d="M99.6591 9.45373C99.6591 9.60883 99.6476 9.73918 99.627 9.8456H97.0428C97.0543 10.2301 97.1776 10.5229 97.4169 10.7259C97.6356 10.9074 97.9176 10.9981 98.2629 10.9981C98.6453 10.9981 98.9939 10.9371 99.308 10.8142L99.4428 11.4148C99.0753 11.5748 98.6428 11.6548 98.1421 11.6548C97.5418 11.6548 97.0691 11.4775 96.727 11.1227C96.3833 10.768 96.2131 10.2919 96.2131 9.69463C96.2131 9.10805 96.3718 8.61965 96.6917 8.23025C97.0255 7.81445 97.4769 7.60655 98.0467 7.60655C98.6042 7.60655 99.0276 7.81445 99.3137 8.23025C99.5448 8.56025 99.6591 8.96863 99.6591 9.45373ZM98.8368 9.23015C98.8434 8.97358 98.7867 8.75248 98.6699 8.56603C98.5203 8.32595 98.2925 8.2055 97.9842 8.2055C97.703 8.2055 97.4736 8.32265 97.2985 8.55778C97.1554 8.74505 97.0707 8.96863 97.0428 9.23015H98.8368Z" fill="white"/>
</g>
<defs>
<clipPath id="clip0">
<rect y="0.5" width="111" height="33" fill="white"/>
</clipPath>
</defs>
</svg>
