<svg width="25" height="25" viewBox="0 0 64 64" fill="none" xmlns="http://www.w3.org/2000/svg">
<path d="M0 20C0 8.95431 8.95431 0 20 0H44C55.0457 0 64 8.95431 64 20V44C64 55.0457 55.0457 64 44 64H0V20Z" fill="#EFF3F5"/>
<g clip-path="url(#clip0)">
<path d="M32 17.3333V46.6667" stroke="black" stroke-width="3" stroke-linecap="round" stroke-linejoin="round"/>
<path d="M38.6667 22.6667H28.6667C27.429 22.6667 26.242 23.1583 25.3668 24.0335C24.4917 24.9087 24 26.0956 24 27.3333C24 28.571 24.4917 29.758 25.3668 30.6332C26.242 31.5083 27.429 32 28.6667 32H35.3333C36.571 32 37.758 32.4917 38.6332 33.3668C39.5083 34.242 40 35.429 40 36.6667C40 37.9043 39.5083 39.0913 38.6332 39.9665C37.758 40.8417 36.571 41.3333 35.3333 41.3333H24" stroke="black" stroke-width="3" stroke-linecap="round" stroke-linejoin="round"/>
</g>
<defs>
<clipPath id="clip0">
<rect x="16" y="16" width="32" height="32" fill="white"/>
</clipPath>
</defs>
</svg>
