<svg width="64" height="64" viewBox="0 0 64 64" fill="none" xmlns="http://www.w3.org/2000/svg">
<path d="M0 20C0 8.95431 8.95431 0 20 0H44C55.0457 0 64 8.95431 64 20V44C64 55.0457 55.0457 64 44 64H0V20Z" fill="#E8F8FF"/>
<path d="M37.2425 26.0001L41.9092 21.3334M44.5758 18.6667L41.9092 21.3334L44.5758 18.6667ZM31.7625 31.4801C32.451 32.1594 32.9983 32.9681 33.3729 33.8598C33.7475 34.7515 33.942 35.7084 33.9452 36.6756C33.9485 37.6427 33.7604 38.601 33.3917 39.4952C33.0231 40.3893 32.4813 41.2017 31.7974 41.8856C31.1135 42.5695 30.3011 43.1113 29.4069 43.48C28.5128 43.8486 27.5545 44.0367 26.5874 44.0335C25.6202 44.0302 24.6633 43.8357 23.7716 43.4611C22.8799 43.0865 22.0712 42.5392 21.3919 41.8507C20.0561 40.4677 19.3169 38.6153 19.3336 36.6925C19.3503 34.7697 20.1216 32.9304 21.4812 31.5707C22.8409 30.2111 24.6802 29.4398 26.6029 29.4231C28.5257 29.4064 30.3781 30.1456 31.7612 31.4814L31.7625 31.4801ZM31.7625 31.4801L37.2425 26.0001L31.7625 31.4801ZM37.2425 26.0001L41.2425 30.0001L45.9092 25.3334L41.9092 21.3334L37.2425 26.0001Z" stroke="#083E9E" stroke-width="3" stroke-linecap="round" stroke-linejoin="round"/>
</svg>
