<svg width="25" height="25" viewBox="0 0 64 64" fill="none" xmlns="http://www.w3.org/2000/svg">
<path d="M0 20C0 8.95431 8.95431 0 20 0H44C55.0457 0 64 8.95431 64 20V44C64 55.0457 55.0457 64 44 64H0V20Z" fill="#DFEEF6"/>
<path d="M41.3333 30.6667H22.6667C21.1939 30.6667 20 31.8606 20 33.3333V42.6667C20 44.1394 21.1939 45.3333 22.6667 45.3333H41.3333C42.8061 45.3333 44 44.1394 44 42.6667V33.3333C44 31.8606 42.8061 30.6667 41.3333 30.6667Z" stroke="#2295F2" stroke-width="3" stroke-linecap="round" stroke-linejoin="round"/>
<path d="M25.3335 30.6667V25.3333C25.3335 23.5652 26.0359 21.8695 27.2861 20.6193C28.5364 19.369 30.2321 18.6667 32.0002 18.6667C33.7683 18.6667 35.464 19.369 36.7142 20.6193C37.9644 21.8695 38.6668 23.5652 38.6668 25.3333V30.6667" stroke="#2295F2" stroke-width="3" stroke-linecap="round" stroke-linejoin="round"/>
</svg>